<svg xml:space="preserve" width="762.03" height="125.58" xmlns="http://www.w3.org/2000/svg"><defs><clipPath clipPathUnits="userSpaceOnUse" id="a"><path d="M0 595.28h841.89V0H0Z"/></clipPath></defs><g clip-path="url(#a)" style="fill:#fff" transform="matrix(1.33333 0 0 -1.33333 -180.24 459.64)"><g style="fill:#fff"><path d="M0 0c0-15.67-10.96-27.49-25.49-27.49-7.2 0-13.8 3-18.57 8.42A29.18 29.18 0 0 0-51.11.27v.27c0 15.67 10.9 27.49 25.36 27.49a24.6 24.6 0 0 0 18.68-8.41A29.12 29.12 0 0 0 0 .27Zm-25.49 47.36c-12.95 0-24.93-4.89-33.73-13.77A46.97 46.97 0 0 1-72.72.27V0c0-12.7 4.76-24.48 13.37-33.18 8.71-8.8 20.65-13.64 33.6-13.64 12.96 0 24.93 4.9 33.73 13.78A46.97 46.97 0 0 1 21.48.27v.27c0 12.7-4.75 24.48-13.37 33.18-8.71 8.8-20.64 13.64-33.6 13.64" style="fill:#fff;fill-opacity:1;fill-rule:nonzero;stroke:none" transform="translate(431.19 297.37)"/></g><g style="fill:#fff"><path d="M0 0c0-8.27-5.92-13.41-15.46-13.41h-14.3a.81.81 0 0 0-.82.81v25.47c0 .45.36.81.81.81h14.19C-5.68 13.68 0 8.8 0 .28Zm20.55 1.9c0 8.62-2.46 15.53-7.3 20.55-5.91 6.38-15.18 9.62-27.56 9.62H-51v-90.4h14.62c3.2 0 5.8 2.6 5.8 5.8v22.09c0 .45.36.81.81.81h9.58a.8.8 0 0 0 .68-.38l.4-.64 17.37-27.67h17.8c1.13 0 2.13.6 2.68 1.59.54 1 .5 2.16-.12 3.12L2.51-28.66l-.86 1.34A.81.81 0 0 0 2-26.14l1.44.65c11.2 5.04 17.1 14.42 17.1 27.12z" style="fill:#fff;fill-opacity:1;fill-rule:nonzero;stroke:none" transform="translate(328.64 310.77)"/></g><g style="fill:#fff"><path d="M0 0v27.77c0 .45.36.81.81.81H13.8c5.03 0 9.03-1.24 11.91-3.7 2.99-2.55 4.57-6.33 4.57-10.93v-.27c0-8.8-6.42-14.5-16.36-14.5H.83A.81.81 0 0 0 0 0m14.44-17.03c10.74 0 19.78 2.82 26.15 8.17C47.2-3.31 50.69 4.9 50.69 14.9v.27c0 9.57-3.23 17.48-9.36 22.88-6.11 5.4-14.97 8.24-25.62 8.24h-36.13v-90.4H-5.8c3.2 0 5.8 2.6 5.8 5.8v20.47c0 .44.36.8.81.8z" style="fill:#fff;fill-opacity:1;fill-rule:nonzero;stroke:none" transform="translate(216.35 296.55)"/></g><g style="fill:#fff"><path d="M0 0c0-15.67-10.96-27.49-25.49-27.49-7.2 0-13.8 3-18.57 8.42A29.18 29.18 0 0 0-51.1.27v.27c0 15.67 10.9 27.49 25.35 27.49a24.6 24.6 0 0 0 18.69-8.41A29.12 29.12 0 0 0 0 .27Zm-25.49 47.36c-12.95 0-24.93-4.89-33.72-13.77A46.98 46.98 0 0 1-72.72.27V0c0-12.7 4.75-24.48 13.36-33.18 8.71-8.8 20.65-13.64 33.6-13.64 12.96 0 24.93 4.9 33.73 13.78A46.97 46.97 0 0 1 21.48.27v.27c0 12.7-4.75 24.48-13.37 33.18-8.71 8.8-20.64 13.64-33.6 13.64" style="fill:#fff;fill-opacity:1;fill-rule:nonzero;stroke:none" transform="translate(615.16 297.37)"/></g><g style="fill:#fff"><path d="M0 0a9 9 0 0 1 6.78 2.72A8.6 8.6 0 0 1 9.4 8.85a8.5 8.5 0 0 1-2.65 6.07c-1.77 1.81-4.1 2.72-7 2.72h-17.63V0Zm-17.88 34.97h15.26c2.76 0 4.85.84 6.25 2.5a8.5 8.5 0 0 1 2.1 5.62c0 2-.67 3.76-2.04 5.31-1.36 1.55-3.5 2.32-6.44 2.32h-15.13zm46.75 10.01c0-4.27-1.09-7.95-3.27-11.04a17.33 17.33 0 0 0-8.08-6.47c3.58-.7 6.96-2.96 10.13-6.78A20.55 20.55 0 0 0 32.4 7.14c0-4.11-.59-7.77-1.77-10.99a22.35 22.35 0 0 0-4.73-7.9 23.97 23.97 0 0 0-7.17-5.07 34.37 34.37 0 0 0-8.7-2.77c-2.99-.53-6.21-.8-9.67-.8h-37.48c-1.18 0-2.1.33-2.78.98-.67.65-1 1.57-1 2.75v84.04c0 1.18.33 2.1 1 2.75.68.65 1.6.98 2.78.98H-.85c9.36 0 16.65-2.11 21.88-6.32 5.22-4.21 7.84-10.81 7.84-19.8" style="fill:#fff;fill-opacity:1;fill-rule:nonzero;stroke:none" transform="translate(504.03 272.28)"/></g><g style="fill:#fff"><path d="M0 0c2.48 0 3.72-1.24 3.72-3.72V-58.6c0-10.79-3.2-19.24-9.61-25.36-6.4-6.13-14.94-9.19-25.6-9.19a34.53 34.53 0 0 0-18.4 5.07 35.18 35.18 0 0 0-12.97 14.1 3.7 3.7 0 0 0-.34 2.92c.3.9.99 1.6 2.04 2.08l12.76 5.98c2.2 1.02 3.87.43 5-1.77a20 20 0 0 1 4.8-5.92c1.8-1.46 4.18-2.2 7.1-2.2 1.92 0 3.6.22 5.04.64a7.75 7.75 0 0 1 3.42 1.93c.83.85 1.52 1.7 2.04 2.56.53.85.9 1.91 1.1 3.17.2 1.27.34 2.28.4 3.06.06.77.1 1.75.1 2.93v54.87c0 1.18.33 2.1 1 2.74.67.65 1.6.98 2.78.98z" style="fill:#fff;fill-opacity:1;fill-rule:nonzero;stroke:none" transform="translate(702.98 344.21)"/></g><g style="fill:#fff"><path d="M0 0c-9.7 0-17.6-7.97-17.6-17.77S-9.7-35.55 0-35.55c9.7 0 17.6 7.98 17.6 17.78S9.7 0 0 0m0 18.24c9.7 0 17.6 7.97 17.6 17.78 0 9.8-7.9 17.77-17.6 17.77-9.7 0-17.6-7.98-17.6-17.77 0-9.81 7.9-17.78 17.6-17.78" style="fill:#fff;fill-opacity:1;fill-rule:nonzero;stroke:none" transform="translate(152.8 288.3)"/></g></g></svg>